<?xml version="1.0" standalone="no"?><!DOCTYPE svg PUBLIC "-//W3C//DTD SVG 1.1//EN" "http://www.w3.org/Graphics/SVG/1.1/DTD/svg11.dtd"><svg t="1751079335518" class="icon" viewBox="0 0 1024 1024" version="1.1" xmlns="http://www.w3.org/2000/svg" p-id="5079" xmlns:xlink="http://www.w3.org/1999/xlink" width="200" height="200"><path d="M243.584 464.213333l273.066667-273.066666 199.466666 11.733333 11.733334 199.445333-273.066667 273.066667-211.2-211.2zM512.106667 105.386667a64 64 0 0 0-49.024 18.624L168.170667 418.944a64 64 0 0 0 0 90.496l241.344 241.365333a64 64 0 0 0 90.517333 0L794.965333 455.893333a64 64 0 0 0 18.624-49.024L800.213333 178.922667a64 64 0 0 0-60.138666-60.138667L512.106667 105.386667z m79.338666 221.376l0 0z m-29.162666 31.146666l0 0z m209.28 211.882667L469.866667 871.466667 213.44 615.04l-60.373333 60.330667 271.552 271.530666a64 64 0 0 0 90.496 0l316.8-316.778666-60.352-60.330667z" fill="#4E5969" p-id="5080"></path></svg>