<?xml version="1.0" standalone="no"?><!DOCTYPE svg PUBLIC "-//W3C//DTD SVG 1.1//EN" "http://www.w3.org/Graphics/SVG/1.1/DTD/svg11.dtd"><svg t="1751560072728" class="icon" viewBox="0 0 1024 1024" version="1.1" xmlns="http://www.w3.org/2000/svg" p-id="3096" xmlns:xlink="http://www.w3.org/1999/xlink" width="200" height="200"><path d="M297.6 924.8c-16 0-35.2-6.4-48-16-25.6-19.2-38.4-51.2-32-83.2l28.8-172.8c3.2-12.8-3.2-28.8-12.8-38.4l-124.8-121.6c-22.4-22.4-32-54.4-22.4-86.4 9.6-32 35.2-51.2 67.2-57.6l172.8-25.6c12.8-3.2 25.6-9.6 32-25.6l76.8-156.8c16-25.6 44.8-41.6 76.8-41.6s60.8 19.2 76.8 48l76.8 156.8c6.4 12.8 19.2 22.4 32 25.6l172.8 25.6c32 3.2 57.6 25.6 67.2 57.6 9.6 32 3.2 64-22.4 86.4l-124.8 121.6c-9.6 9.6-16 25.6-12.8 38.4l28.8 172.8c6.4 32-6.4 64-32 83.2-25.6 19.2-60.8 22.4-89.6 6.4l-153.6-80c-12.8-6.4-28.8-6.4-41.6 0l-153.6 80c-12.8 0-25.6 3.2-38.4 3.2z m214.4-134.4c12.8 0 25.6 3.2 38.4 9.6l153.6 80c16 9.6 32 6.4 44.8-3.2 12.8-9.6 19.2-25.6 16-41.6l-28.8-172.8c-3.2-28.8 3.2-54.4 25.6-73.6l124.8-121.6c12.8-12.8 16-28.8 9.6-44.8-6.4-16-19.2-28.8-35.2-28.8l-172.8-25.6c-28.8-3.2-51.2-22.4-64-44.8l-76.8-156.8c-3.2-19.2-19.2-28.8-35.2-28.8-16 0-32 9.6-38.4 25.6L393.6 320c-12.8 25.6-35.2 41.6-64 44.8l-169.6 25.6c-16 3.2-28.8 12.8-35.2 28.8-6.4 16 0 32 9.6 44.8l124.8 121.6c19.2 22.4 28.8 48 25.6 76.8L256 835.2c-3.2 16 3.2 32 16 41.6 12.8 9.6 32 12.8 44.8 3.2l153.6-80c16-6.4 28.8-9.6 41.6-9.6z" p-id="3097" fill="#2c2c2c"></path></svg>